<?xml version="1.0" encoding="utf-8"?>
<!-- Generator: Adobe Illustrator 22.1.0, SVG Export Plug-In . SVG Version: 6.00 Build 0)  -->
<svg version="1.1" id="Layer_1" xmlns="http://www.w3.org/2000/svg" xmlns:xlink="http://www.w3.org/1999/xlink" x="0px" y="0px"
	 viewBox="0 0 2000 852" style="enable-background:new 0 0 2000 852;" xml:space="preserve">
<style type="text/css">
	.st0{fill:#EB3324;}
	.st1{fill:#FFFFFF;}
</style>
<g>
	<rect x="125" y="142.1" class="st0" width="1115.2" height="546.6"/>
	<g>
		<path class="st1" d="M194,503.8c20.8,10.6,52.7,21.3,85.6,21.3c35.4,0,54.2-14.7,54.2-37c0-21.3-16.2-33.4-57.2-48.1
			c-56.7-19.7-93.7-51.1-93.7-100.8c0-58.2,48.6-102.8,129.1-102.8c38.5,0,66.8,8.1,87.1,17.2l-17.2,62.3
			c-13.7-6.6-38-16.2-71.4-16.2s-49.6,15.2-49.6,32.9c0,21.8,19.2,31.4,63.3,48.1c60.3,22.3,88.6,53.7,88.6,101.8
			c0,57.2-44.1,105.8-137.7,105.8c-39,0-77.5-10.1-96.7-20.8L194,503.8z"/>
		<path class="st1" d="M753.6,452.6c-1.5-41-3-90.6-3-140.3H749c-10.6,43.5-24.8,92.2-38,132.2l-41.5,133.2h-60.3l-36.5-132.2
			c-11.1-40-22.8-88.6-30.9-133.2h-1c-2,46.1-3.5,98.7-6.1,141.3l-6.1,129.6h-71.4L479.1,242h102.8l33.4,113.9
			c10.6,39.5,21.3,82,28.9,122h1.5c9.6-39.5,21.3-84.6,32.4-122.5L714.6,242h100.8l18.7,341.3h-75.5L753.6,452.6z"/>
		<path class="st1" d="M893.3,583.3V242h90.1l70.9,125.1c20.3,36,40.5,78.5,55.7,117h1.5c-5.1-45.1-6.6-91.1-6.6-142.3V242h70.9
			v341.3h-81L1022,451.6c-20.3-36.5-42.5-80.5-59.2-120.5l-1.5,0.5c2,45.1,3,93.2,3,148.9v102.8H893.3z"/>
	</g>
	<g>
		<path class="st0" d="M1334.2,583.3v-46.6l42.5-38.5c71.9-64.3,106.8-101.3,107.9-139.8c0-26.8-16.2-48.1-54.2-48.1
			c-28.4,0-53.2,14.2-70.4,27.3l-21.8-55.2c24.8-18.7,63.3-33.9,107.9-33.9c74.4,0,115.5,43.5,115.5,103.3
			c0,55.2-40,99.3-87.6,141.8l-30.4,25.3v1h124.1v63.3H1334.2z"/>
		<path class="st0" d="M1751.4,583.3v-78.5h-145.8v-50.1l124.6-200.5h94.2v192.9h39.5v57.7h-39.5v78.5H1751.4z M1751.4,447.1v-72.9
			c0-19.7,1-40,2.5-61.3h-2c-10.6,21.3-19.2,40.5-30.4,61.3l-44.1,71.9v1H1751.4z"/>
	</g>
</g>
</svg>
